<svg width="50" height="50" viewBox="0 0 40 40" fill="none" xmlns="http://www.w3.org/2000/svg">
  <rect opacity="0.3" width="40" height="40" fill="#73CFA8" />
  <g clip-path="url(#clip0_1743_924)">
    <path
      d="M19.3364 11.2013C19.7374 10.9352 20.2624 10.9352 20.6635 11.2013L21.3124 11.6279C21.5312 11.7701 21.7864 11.8393 22.0452 11.8248L22.8218 11.7774C23.3031 11.7482 23.7551 12.0107 23.9702 12.4409L24.3202 13.1373C24.4369 13.3706 24.6265 13.5565 24.8562 13.6732L25.5598 14.0268C25.99 14.2419 26.2525 14.694 26.2234 15.1753L26.176 15.9518C26.1614 16.2107 26.2307 16.4695 26.3729 16.6847L26.8031 17.3336C27.0692 17.7347 27.0692 18.2597 26.8031 18.6607L26.3729 19.3133C26.2307 19.532 26.1614 19.7873 26.176 20.0461L26.2234 20.8227C26.2525 21.3039 25.99 21.756 25.5598 21.9711L24.8635 22.3211C24.6301 22.4378 24.4442 22.6274 24.3275 22.857L23.9739 23.5607C23.7588 23.9909 23.3067 24.2534 22.8255 24.2242L22.0489 24.1768C21.79 24.1623 21.5312 24.2315 21.3161 24.3737L20.6671 24.8039C20.2661 25.0701 19.7411 25.0701 19.34 24.8039L18.6874 24.3737C18.4687 24.2315 18.2135 24.1623 17.9546 24.1768L17.1781 24.2242C16.6968 24.2534 16.2447 23.9909 16.0296 23.5607L15.6796 22.8643C15.563 22.631 15.3734 22.4451 15.1437 22.3284L14.44 21.9748C14.0098 21.7596 13.7473 21.3076 13.7765 20.8263L13.8239 20.0498C13.8385 19.7909 13.7692 19.532 13.627 19.3169L13.2005 18.6643C12.9343 18.2633 12.9343 17.7383 13.2005 17.3373L13.627 16.6883C13.7692 16.4695 13.8385 16.2143 13.8239 15.9555L13.7765 15.1789C13.7473 14.6977 14.0098 14.2456 14.44 14.0305L15.1364 13.6805C15.3697 13.5602 15.5593 13.3706 15.676 13.1373L16.026 12.4409C16.2411 12.0107 16.6932 11.7482 17.1744 11.7774L17.951 11.8248C18.2098 11.8393 18.4687 11.7701 18.6838 11.6279L19.3364 11.2013ZM22.9166 18.0008C22.9166 17.2272 22.6093 16.4854 22.0623 15.9384C21.5153 15.3914 20.7735 15.0841 19.9999 15.0841C19.2264 15.0841 18.4845 15.3914 17.9375 15.9384C17.3906 16.4854 17.0833 17.2272 17.0833 18.0008C17.0833 18.7743 17.3906 19.5162 17.9375 20.0632C18.4845 20.6102 19.2264 20.9175 19.9999 20.9175C20.7735 20.9175 21.5153 20.6102 22.0623 20.0632C22.6093 19.5162 22.9166 18.7743 22.9166 18.0008ZM13.0473 27.1081L14.6187 23.3711C14.626 23.3748 14.6296 23.3784 14.6333 23.3857L14.9833 24.082C15.4098 24.9279 16.2958 25.4419 17.2437 25.3873L18.0202 25.3399C18.0275 25.3399 18.0385 25.3399 18.0458 25.3471L18.6947 25.7774C18.8807 25.8977 19.0775 25.9925 19.2817 26.0581L17.9109 29.3138C17.827 29.5143 17.6411 29.6492 17.426 29.6675C17.2109 29.6857 17.0031 29.5873 16.8864 29.405L15.7124 27.6076L13.6671 27.9102C13.4593 27.9393 13.2515 27.8555 13.1202 27.6914C12.989 27.5274 12.9635 27.3013 13.0437 27.1081H13.0473ZM22.089 29.3102L20.7182 26.0581C20.9223 25.9925 21.1192 25.9013 21.3051 25.7774L21.9541 25.3471C21.9614 25.3435 21.9687 25.3399 21.9796 25.3399L22.7562 25.3873C23.7041 25.4419 24.59 24.9279 25.0166 24.082L25.3666 23.3857C25.3702 23.3784 25.3739 23.3748 25.3812 23.3711L26.9562 27.1081C27.0364 27.3013 27.0072 27.5237 26.8796 27.6914C26.752 27.8591 26.5406 27.943 26.3327 27.9102L24.2874 27.6076L23.1135 29.4013C22.9968 29.5836 22.789 29.682 22.5739 29.6638C22.3588 29.6456 22.1729 29.507 22.089 29.3102Z"
      fill="#73CFA8" />
  </g>
  <defs>
    <clipPath id="clip0_1743_924">
      <rect width="14" height="18.6667" fill="white" transform="translate(13 11)" />
    </clipPath>
  </defs>
</svg>