<svg width="50" height="50" viewBox="0 0 40 40" fill="none" xmlns="http://www.w3.org/2000/svg">
<rect width="40" height="40" fill="#D5E8FF"/>
<path d="M28.01 22.5515L22.466 28.0942C22.2028 28.3555 21.8471 28.5021 21.4763 28.5021C21.1055 28.5021 20.7497 28.3555 20.4866 28.0942L12.554 20.1616C11.9622 19.5019 11.6179 18.6571 11.5801 17.7717L11.6344 13.122C11.6412 12.7485 11.7928 12.3922 12.0572 12.1283C12.3216 11.8644 12.6781 11.7135 13.0517 11.7073L17.6874 11.6631C18.5729 11.703 19.4173 12.048 20.0773 12.6395L28.01 20.5721C28.2712 20.8353 28.4179 21.191 28.4179 21.5618C28.4179 21.9326 28.2712 22.2884 28.01 22.5515ZM15.3582 14.4837C15.3582 14.2859 15.2995 14.0924 15.1896 13.9279C15.0797 13.7634 14.9234 13.6352 14.7406 13.5594C14.5578 13.4837 14.3567 13.4639 14.1626 13.5025C13.9685 13.5411 13.7903 13.6364 13.6504 13.7763C13.5104 13.9162 13.4152 14.0945 13.3766 14.2885C13.338 14.4826 13.3578 14.6838 13.4335 14.8666C13.5092 15.0494 13.6374 15.2056 13.802 15.3155C13.9665 15.4255 14.1599 15.4841 14.3578 15.4841C14.6231 15.4841 14.8776 15.3787 15.0652 15.1911C15.2528 15.0035 15.3582 14.749 15.3582 14.4837ZM23.6874 23.7654C23.7525 23.7004 23.8042 23.6232 23.8394 23.5383C23.8746 23.4533 23.8927 23.3622 23.8927 23.2702C23.8927 23.1783 23.8746 23.0872 23.8394 23.0022C23.8042 22.9173 23.7525 22.8401 23.6874 22.7751L23.1809 22.2686C23.3898 21.9483 23.5396 21.5932 23.623 21.2201C23.7121 20.8874 23.7126 20.5372 23.6247 20.2042C23.5367 19.8712 23.3633 19.567 23.1216 19.3216C22.7776 18.9791 22.3213 18.7726 21.8369 18.7406C21.5173 18.7199 21.1965 18.7563 20.8896 18.8479H20.887C20.6241 18.9308 20.3734 19.0484 20.1418 19.1978H20.138C19.9382 19.3282 19.7527 19.4794 19.5847 19.6488C19.4836 19.7503 19.3741 19.8433 19.2576 19.9267C19.1301 20.0179 18.9901 20.0902 18.842 20.1414H18.8394C18.7019 20.1865 18.5566 20.2029 18.4125 20.1894H18.41C18.2624 20.1776 18.1229 20.1172 18.0133 20.0176C17.9332 19.9272 17.8785 19.817 17.855 19.6985C17.8314 19.58 17.8399 19.4573 17.8794 19.3431C17.9679 19.0028 18.1468 18.6929 18.3973 18.4462C18.488 18.3685 18.5852 18.2988 18.6879 18.2378L18.7258 18.2138C18.8544 18.1351 18.9907 18.0695 19.1325 18.018C19.2638 17.9688 19.4028 17.9431 19.543 17.9422C19.7286 17.9422 19.9066 17.8685 20.0379 17.7373C20.1691 17.606 20.2428 17.4281 20.2428 17.2425C20.2428 17.0569 20.1691 16.8789 20.0379 16.7476C19.9066 16.6164 19.7286 16.5427 19.543 16.5427C19.2336 16.5439 18.9256 16.6004 18.6361 16.7094C18.4026 16.7955 18.1786 16.9055 17.9679 17.0378L17.9552 17.0454L17.4525 16.5401C17.3874 16.4751 17.3101 16.4235 17.2251 16.3884C17.14 16.3532 17.0489 16.3352 16.9569 16.3352C16.8649 16.3353 16.7738 16.3535 16.6888 16.3887C16.6038 16.424 16.5266 16.4757 16.4616 16.5408C16.3965 16.6059 16.345 16.6832 16.3098 16.7682C16.2746 16.8532 16.2566 16.9444 16.2566 17.0364C16.2567 17.1284 16.2749 17.2195 16.3101 17.3045C16.3454 17.3895 16.3971 17.4667 16.4622 17.5317L16.9523 18.0206C16.748 18.3304 16.5997 18.6737 16.514 19.0349C16.4225 19.3797 16.4214 19.7423 16.5108 20.0876C16.6002 20.433 16.777 20.7495 17.0243 21.0067C17.3599 21.3353 17.7983 21.5387 18.266 21.5827C18.6091 21.6178 18.9557 21.5795 19.2828 21.4702C19.5641 21.3757 19.8297 21.2399 20.071 21.0673C20.2502 20.9388 20.4184 20.7955 20.5738 20.6391C20.672 20.5404 20.7804 20.4523 20.8971 20.3763C21.0231 20.2957 21.159 20.2316 21.3013 20.1856C21.444 20.1445 21.5927 20.1282 21.7409 20.1376C21.8875 20.1476 22.0255 20.2099 22.13 20.3132C22.1931 20.3751 22.3384 20.5216 22.2525 20.9296C22.166 21.2784 21.9855 21.5969 21.7308 21.8505C21.6197 21.951 21.5015 22.0435 21.3771 22.1271C21.2552 22.2059 21.1257 22.2723 20.9906 22.3254C20.862 22.3749 20.7234 22.3931 20.5864 22.3785C20.4947 22.3718 20.4025 22.3833 20.3152 22.4123C20.2279 22.4413 20.1472 22.4871 20.0777 22.5473C20.0081 22.6075 19.9511 22.6808 19.9098 22.763C19.8686 22.8452 19.844 22.9347 19.8373 23.0265C19.8307 23.1182 19.8422 23.2103 19.8712 23.2976C19.9002 23.3849 19.946 23.4656 20.0062 23.5352C20.0664 23.6047 20.1397 23.6618 20.2219 23.703C20.3041 23.7442 20.3936 23.7689 20.4853 23.7755C20.551 23.7806 20.6154 23.7818 20.6773 23.7818C20.9743 23.785 21.2688 23.7274 21.5426 23.6126C21.7677 23.5222 21.9824 23.4078 22.183 23.2715L22.1957 23.2627L22.6971 23.7654C22.8285 23.8961 23.0063 23.9695 23.1917 23.9695C23.377 23.9695 23.5548 23.8961 23.6862 23.7654H23.6874Z" fill="#73B1FF"/>
</svg>
