<svg width="72" height="72" viewBox="0 0 72 72" fill="none" xmlns="http://www.w3.org/2000/svg">
<rect width="72" height="72" fill="#E9DEFF"/>
<path d="M45.3439 29.875C46.5245 28.9896 47.3965 27.7551 47.8365 26.3465C48.2766 24.9379 48.2622 23.4265 47.7955 22.0265C47.3289 20.6265 46.4335 19.4088 45.2364 18.546C44.0392 17.6831 42.6009 17.2187 41.1251 17.2188H28.4689C26.9931 17.2187 25.5548 17.6831 24.3576 18.546C23.1604 19.4088 22.2651 20.6265 21.7984 22.0265C21.3318 23.4265 21.3174 24.9379 21.7574 26.3465C22.1975 27.7551 23.0695 28.9896 24.2501 29.875C23.3562 30.5449 22.6348 31.4181 22.1456 32.4224C21.6565 33.4266 21.4136 34.5329 21.4371 35.6497C21.4606 36.7665 21.7499 37.8616 22.281 38.8444C22.8121 39.8271 23.5696 40.6691 24.4909 41.3008C23.443 42.0975 22.6158 43.1485 22.0875 44.3544C21.5593 45.5602 21.3476 46.8808 21.4725 48.1913C21.5973 49.5018 22.0546 50.7588 22.801 51.8431C23.5474 52.9275 24.5583 53.8034 25.7378 54.3879C26.9174 54.9724 28.2266 55.2462 29.5415 55.1833C30.8564 55.1204 32.1335 54.7229 33.2519 54.0285C34.3703 53.3341 35.2929 52.3657 35.9324 51.215C36.5719 50.0644 36.9072 48.7696 36.9064 47.4531V41.125C37.6451 41.679 38.4856 42.0821 39.3801 42.3113C40.2746 42.5404 41.2054 42.5912 42.1195 42.4606C43.0336 42.33 43.913 42.0207 44.7075 41.5502C45.502 41.0798 46.1961 40.4574 46.7501 39.7188C47.3041 38.9801 47.7072 38.1395 47.9364 37.245C48.1655 36.3506 48.2163 35.4197 48.0857 34.5056C47.9551 33.5916 47.6458 32.7121 47.1753 31.9176C46.7049 31.1231 46.0826 30.429 45.3439 29.875ZM45.3439 24.25C45.3439 25.3689 44.8994 26.4419 44.1082 27.2331C43.3171 28.0243 42.244 28.4688 41.1251 28.4688H36.9064V20.0312H41.1251C42.244 20.0312 43.3171 20.4757 44.1082 21.2669C44.8994 22.0581 45.3439 23.1311 45.3439 24.25ZM24.2501 24.25C24.2501 23.1311 24.6946 22.0581 25.4858 21.2669C26.2769 20.4757 27.35 20.0312 28.4689 20.0312H34.0939V28.4688H28.4689C27.35 28.4688 26.2769 28.0243 25.4858 27.2331C24.6946 26.4419 24.2501 25.3689 24.2501 24.25ZM28.4689 39.7188C27.35 39.7188 26.2769 39.2743 25.4858 38.4831C24.6946 37.6919 24.2501 36.6189 24.2501 35.5C24.2501 34.3811 24.6946 33.3081 25.4858 32.5169C26.2769 31.7257 27.35 31.2812 28.4689 31.2812H34.0939V39.7188H28.4689ZM34.0939 47.4531C34.0939 48.4266 33.8052 49.3782 33.2644 50.1876C32.7236 50.997 31.9549 51.6278 31.0555 52.0003C30.1562 52.3729 29.1665 52.4703 28.2118 52.2804C27.257 52.0905 26.38 51.6218 25.6917 50.9334C25.0034 50.2451 24.5346 49.3681 24.3447 48.4133C24.1548 47.4586 24.2522 46.469 24.6248 45.5696C24.9973 44.6703 25.6281 43.9016 26.4375 43.3607C27.2469 42.8199 28.1985 42.5312 29.172 42.5312H34.0939V47.4531ZM41.1251 39.7188C40.2907 39.7188 39.4751 39.4713 38.7813 39.0078C38.0875 38.5442 37.5468 37.8853 37.2275 37.1144C36.9082 36.3436 36.8247 35.4953 36.9874 34.677C37.1502 33.8586 37.552 33.1069 38.142 32.5169C38.732 31.9269 39.4837 31.5251 40.3021 31.3623C41.1204 31.1995 41.9687 31.2831 42.7396 31.6024C43.5104 31.9217 44.1693 32.4624 44.6329 33.1562C45.0964 33.85 45.3439 34.6656 45.3439 35.5C45.3439 36.6189 44.8994 37.6919 44.1082 38.4831C43.3171 39.2743 42.244 39.7188 41.1251 39.7188Z" fill="#925BFF"/>
</svg>
