<svg width="72" height="72" viewBox="0 0 72 72" fill="none" xmlns="http://www.w3.org/2000/svg">
  <rect y="6.10352e-05" width="72" height="72" fill="#DAF3FF" />
  <path
    d="M49.5628 30.875V19.625C49.5628 19.252 49.4147 18.8944 49.1509 18.6306C48.8872 18.3669 48.5295 18.2188 48.1566 18.2188H22.8441C22.5582 18.2181 22.2788 18.3046 22.0433 18.4667C21.8078 18.6289 21.6274 18.859 21.526 19.1263C21.4246 19.3936 21.4071 19.6855 21.4758 19.9631C21.5445 20.2406 21.6962 20.4906 21.9107 20.6797L31.8089 29.4688H22.8441C22.4711 29.4688 22.1134 29.6169 21.8497 29.8806C21.586 30.1444 21.4378 30.502 21.4378 30.875V42.125C21.4377 42.3097 21.4739 42.4927 21.5445 42.6634C21.6151 42.8341 21.7186 42.9892 21.8492 43.1199L34.5054 55.7762C34.7021 55.9731 34.9527 56.1072 35.2257 56.1615C35.4986 56.2159 35.7815 56.188 36.0386 56.0815C36.2957 55.975 36.5154 55.7946 36.6699 55.5631C36.8244 55.3316 36.9068 55.0595 36.9066 54.7812V43.5313H48.1566C48.4425 43.5319 48.7218 43.4454 48.9573 43.2833C49.1928 43.1211 49.3733 42.891 49.4747 42.6237C49.5761 42.3564 49.5936 42.0645 49.5248 41.787C49.4561 41.5094 49.3044 41.2594 49.09 41.0703L39.1917 32.2813H48.1566C48.5295 32.2813 48.8872 32.1331 49.1509 31.8694C49.4147 31.6056 49.5628 31.248 49.5628 30.875ZM44.4652 40.7188H35.5003C35.1274 40.7188 34.7697 40.8669 34.506 41.1306C34.2422 41.3944 34.0941 41.752 34.0941 42.125V51.3869L24.2503 41.5432V32.2813H34.973L44.4652 40.7188ZM46.7503 29.4688H36.0277L26.5355 21.0313H46.7503V29.4688Z"
    fill="#47C1FE" />
</svg>