<svg width="72" height="72" viewBox="0 0 72 72" fill="none" xmlns="http://www.w3.org/2000/svg">
<rect y="6.10352e-05" width="72" height="72" fill="#FFE4DA"/>
<path d="M51.87 36.5C52.9066 35.5751 53.5643 34.2994 53.7163 32.9186C53.8684 31.5377 53.5041 30.1495 52.6936 29.0212C51.8832 27.8929 50.6839 27.1045 49.3268 26.8077C47.9696 26.5109 46.5507 26.7269 45.3433 27.4139V23.8438C45.342 22.7017 44.9931 21.5872 44.3431 20.6482C43.693 19.7093 42.7726 18.9904 41.7041 18.5873C40.6356 18.1841 39.4697 18.1157 38.3614 18.3912C37.2531 18.6667 36.2549 19.273 35.4995 20.1295C34.5747 19.0929 33.2989 18.4353 31.9181 18.2832C30.5373 18.1312 29.149 18.4954 28.0207 19.3059C26.8924 20.1164 26.104 21.3157 25.8072 22.6728C25.5105 24.0299 25.7264 25.4488 26.4134 26.6563H22.8433C21.7013 26.6575 20.5867 27.0064 19.6477 27.6565C18.7088 28.3065 17.9899 29.227 17.5868 30.2955C17.1836 31.364 17.1152 32.5299 17.3907 33.6382C17.6662 34.7464 18.2725 35.7446 19.129 36.5C18.0925 37.4249 17.4348 38.7006 17.2827 40.0814C17.1307 41.4623 17.495 42.8506 18.3054 43.9788C19.1159 45.1071 20.3152 45.8956 21.6723 46.1923C23.0294 46.4891 24.4484 46.2732 25.6558 45.5861V49.1563C25.6571 50.2983 26.0059 51.4129 26.656 52.3518C27.3061 53.2908 28.2265 54.0096 29.295 54.4128C30.3635 54.8159 31.5294 54.8843 32.6377 54.6088C33.746 54.3333 34.7442 53.727 35.4995 52.8705C36.4244 53.9071 37.7001 54.5647 39.081 54.7168C40.4618 54.8689 41.8501 54.5046 42.9784 53.6941C44.1066 52.8836 44.8951 51.6843 45.1919 50.3272C45.4886 48.9701 45.2727 47.5512 44.5857 46.3438H48.1558C49.2978 46.3425 50.4124 45.9936 51.3513 45.3435C52.2903 44.6935 53.0091 43.773 53.4123 42.7045C53.8154 41.636 53.8838 40.4702 53.6083 39.3619C53.3329 38.2536 52.7266 37.2554 51.87 36.5ZM25.6558 40.7188C25.6558 41.275 25.4908 41.8188 25.1818 42.2813C24.8728 42.7438 24.4335 43.1043 23.9196 43.3172C23.4057 43.53 22.8402 43.5857 22.2946 43.4772C21.749 43.3687 21.2479 43.1008 20.8545 42.7075C20.4612 42.3142 20.1933 41.813 20.0848 41.2674C19.9763 40.7219 20.032 40.1564 20.2449 39.6425C20.4577 39.1285 20.8182 38.6893 21.2807 38.3802C21.7433 38.0712 22.287 37.9063 22.8433 37.9063H25.6558V40.7188ZM34.0933 49.1563C34.0933 49.9022 33.797 50.6175 33.2695 51.145C32.7421 51.6724 32.0267 51.9688 31.2808 51.9688C30.5349 51.9688 29.8195 51.6724 29.292 51.145C28.7646 50.6175 28.4683 49.9022 28.4683 49.1563V40.7188C28.4683 39.9728 28.7646 39.2575 29.292 38.73C29.8195 38.2026 30.5349 37.9063 31.2808 37.9063H34.0933V49.1563ZM34.0933 35.0938H22.8433C22.0974 35.0938 21.382 34.7974 20.8545 34.27C20.3271 33.7425 20.0308 33.0272 20.0308 32.2813C20.0308 31.5353 20.3271 30.82 20.8545 30.2925C21.382 29.7651 22.0974 29.4688 22.8433 29.4688H31.2808C32.0267 29.4688 32.7421 29.7651 33.2695 30.2925C33.797 30.82 34.0933 31.5353 34.0933 32.2813V35.0938ZM34.0933 26.6563H31.2808C30.7245 26.6563 30.1808 26.4913 29.7182 26.1823C29.2557 25.8732 28.8952 25.434 28.6824 24.9201C28.4695 24.4061 28.4138 23.8406 28.5223 23.2951C28.6308 22.7495 28.8987 22.2484 29.292 21.855C29.6854 21.4617 30.1865 21.1938 30.7321 21.0853C31.2777 20.9768 31.8432 21.0325 32.3571 21.2453C32.871 21.4582 33.3103 21.8187 33.6193 22.2812C33.9283 22.7437 34.0933 23.2875 34.0933 23.8438V26.6563ZM36.9058 23.8438C36.9058 23.0978 37.2021 22.3825 37.7295 21.855C38.257 21.3276 38.9724 21.0313 39.7183 21.0313C40.4642 21.0313 41.1796 21.3276 41.707 21.855C42.2345 22.3825 42.5308 23.0978 42.5308 23.8438V32.2813C42.5308 33.0272 42.2345 33.7425 41.707 34.27C41.1796 34.7974 40.4642 35.0938 39.7183 35.0938H36.9058V23.8438ZM39.7183 51.9688C38.9724 51.9688 38.257 51.6724 37.7295 51.145C37.2021 50.6175 36.9058 49.9022 36.9058 49.1563V46.3438H39.7183C40.4642 46.3438 41.1796 46.6401 41.707 47.1675C42.2345 47.695 42.5308 48.4103 42.5308 49.1563C42.5308 49.9022 42.2345 50.6175 41.707 51.145C41.1796 51.6724 40.4642 51.9688 39.7183 51.9688ZM48.1558 43.5313H39.7183C38.9724 43.5313 38.257 43.2349 37.7295 42.7075C37.2021 42.18 36.9058 41.4647 36.9058 40.7188V37.9063H48.1558C48.9017 37.9063 49.6171 38.2026 50.1445 38.73C50.672 39.2575 50.9683 39.9728 50.9683 40.7188C50.9683 41.4647 50.672 42.18 50.1445 42.7075C49.6171 43.2349 48.9017 43.5313 48.1558 43.5313ZM48.1558 35.0938H45.3433V32.2813C45.3433 31.725 45.5082 31.1812 45.8173 30.7187C46.1263 30.2562 46.5656 29.8957 47.0795 29.6828C47.5934 29.47 48.1589 29.4143 48.7045 29.5228C49.25 29.6313 49.7512 29.8992 50.1445 30.2925C50.5379 30.6859 50.8057 31.187 50.9142 31.7326C51.0228 32.2781 50.9671 32.8436 50.7542 33.3576C50.5413 33.8715 50.1808 34.3107 49.7183 34.6198C49.2558 34.9288 48.712 35.0938 48.1558 35.0938Z" fill="#FF7847"/>
</svg>
