<svg width="72" height="72" viewBox="0 0 72 72" fill="none" xmlns="http://www.w3.org/2000/svg">
  <rect width="72" height="72" fill="#D2F2DC" />
  <path
    d="M35.5 17.2188C31.8843 17.2188 28.3498 18.2909 25.3435 20.2997C22.3372 22.3085 19.994 25.1636 18.6103 28.5041C17.2267 31.8445 16.8646 35.5203 17.57 39.0665C18.2754 42.6127 20.0165 45.8701 22.5732 48.4268C25.1299 50.9835 28.3873 52.7246 31.9335 53.43C35.4797 54.1354 39.1555 53.7733 42.4959 52.3897C45.8364 51.006 48.6915 48.6629 50.7003 45.6565C52.7091 42.6502 53.7813 39.1157 53.7813 35.5C53.7761 30.6531 51.8484 26.0061 48.4212 22.5789C44.9939 19.1516 40.3469 17.2239 35.5 17.2188ZM35.5 50.9688C32.4406 50.9688 29.4499 50.0615 26.906 48.3618C24.3622 46.6621 22.3795 44.2462 21.2087 41.4196C20.038 38.5931 19.7316 35.4828 20.3285 32.4822C20.9254 29.4816 22.3986 26.7253 24.562 24.5619C26.7253 22.3986 29.4816 20.9253 32.4822 20.3285C35.4828 19.7316 38.5931 20.0379 41.4196 21.2087C44.2462 22.3795 46.6621 24.3622 48.3618 26.906C50.0615 29.4498 50.9688 32.4406 50.9688 35.5C50.9641 39.6011 49.3329 43.533 46.4329 46.4329C43.533 49.3329 39.6011 50.9641 35.5 50.9688ZM40.9615 42.8371C40.7871 43.1667 40.489 43.4134 40.1326 43.5232C39.7763 43.633 39.391 43.5967 39.0613 43.4225C37.9665 42.834 36.743 42.5259 35.5 42.5259C34.2571 42.5259 33.0335 42.834 31.9387 43.4225C31.61 43.5877 31.2296 43.6176 30.8791 43.5056C30.5287 43.3937 30.236 43.1488 30.064 42.8236C29.8919 42.4984 29.8542 42.1187 29.9589 41.766C30.0635 41.4133 30.3023 41.1157 30.6238 40.9369C32.1263 40.1422 33.8003 39.7268 35.5 39.7268C37.1997 39.7268 38.8737 40.1422 40.3762 40.9369C40.7057 41.1113 40.9525 41.4095 41.0623 41.7658C41.172 42.1221 41.1358 42.5075 40.9615 42.8371ZM46.5865 32.9934C46.4996 33.1564 46.3813 33.3007 46.2386 33.418C46.0958 33.5353 45.9313 33.6233 45.7545 33.677C45.5777 33.7307 45.3921 33.7491 45.2082 33.731C45.0243 33.7129 44.8458 33.6588 44.6828 33.5717C41.859 32.0592 38.7052 31.2677 35.5018 31.2677C32.2984 31.2677 29.1446 32.0592 26.3207 33.5717C25.9916 33.7474 25.6061 33.7852 25.2491 33.6768C24.8921 33.5683 24.5928 33.3225 24.417 32.9934C24.2412 32.6642 24.2034 32.2787 24.3119 31.9217C24.4203 31.5647 24.6662 31.2654 24.9953 31.0896C28.2272 29.36 31.8361 28.455 35.5018 28.455C39.1674 28.455 42.7763 29.36 46.0082 31.0896C46.1715 31.1768 46.3161 31.2953 46.4335 31.4384C46.5509 31.5815 46.639 31.7463 46.6925 31.9235C46.7461 32.1007 46.7642 32.2868 46.7457 32.4709C46.7272 32.6551 46.6725 32.8339 46.5848 32.9969L46.5865 32.9934ZM43.774 37.9152C43.5987 38.2443 43.2998 38.4903 42.9432 38.5991C42.5865 38.7079 42.2012 38.6705 41.8721 38.4953C39.9116 37.4495 37.7238 36.9025 35.5018 36.9025C33.2798 36.9025 31.092 37.4495 29.1315 38.4953C28.803 38.6631 28.4218 38.6951 28.07 38.5845C27.7182 38.4739 27.4239 38.2295 27.2506 37.904C27.0772 37.5785 27.0387 37.1979 27.1432 36.8443C27.2478 36.4906 27.4871 36.1922 27.8096 36.0133C30.177 34.7508 32.8188 34.0905 35.5018 34.0905C38.1848 34.0905 40.8265 34.7508 43.194 36.0133C43.3572 36.1002 43.5017 36.2186 43.6192 36.3615C43.7366 36.5044 43.8247 36.669 43.8785 36.846C43.9322 37.023 43.9505 37.2089 43.9322 37.393C43.914 37.577 43.8597 37.7557 43.7723 37.9187L43.774 37.9152Z"
    fill="#1EBD53" />
</svg>