<svg width="72" height="72" viewBox="0 0 72 72" fill="none" xmlns="http://www.w3.org/2000/svg">
  <rect y="6.10352e-05" width="72" height="72" fill="#DAF3FF" />
  <path
    d="M54.6392 18.6037C54.4213 18.4156 54.1563 18.2904 53.8725 18.2418C53.5888 18.1932 53.2972 18.2229 53.0291 18.3277L17.4052 32.2689C16.9004 32.4653 16.4729 32.8203 16.1873 33.2805C15.9016 33.7408 15.7732 34.2814 15.8214 34.821C15.8696 35.3605 16.0918 35.8698 16.4545 36.2722C16.8171 36.6745 17.3007 36.9482 17.8324 37.052L27.0627 38.8643V49.1562C27.0608 49.7168 27.2274 50.2651 27.5409 50.7299C27.8543 51.1947 28.3001 51.5546 28.8205 51.7631C29.3401 51.9753 29.9115 52.0262 30.4604 51.9093C31.0093 51.7923 31.5104 51.5129 31.8984 51.1074L36.3492 46.4914L43.4103 52.6719C43.9198 53.1237 44.5768 53.3738 45.2578 53.375C45.5562 53.3748 45.8527 53.3279 46.1367 53.2361C46.6006 53.0889 47.018 52.8227 47.347 52.464C47.6761 52.1053 47.9055 51.6667 48.0123 51.1918L55.1472 20.1523C55.211 19.8724 55.1975 19.5804 55.108 19.3076C55.0185 19.0348 54.8565 18.7914 54.6392 18.6037ZM43.892 24.9318L28.1437 36.21L19.425 34.4996L43.892 24.9318ZM29.8752 49.1562V40.8102L34.2328 44.6316L29.8752 49.1562ZM45.2613 50.5625L30.7277 37.8184L51.6457 22.826L45.2613 50.5625Z"
    fill="#46C0FE" />
</svg>